<svg width="148" height="138" viewBox="0 0 148 138" fill="none" xmlns="http://www.w3.org/2000/svg">
<path d="M147.48 15.064C147.48 23.3836 140.736 30.1279 132.417 30.1279H66.0912C60.7458 30.1279 55.6286 32.2945 51.9082 36.1328C48.1878 39.9711 43.0706 42.1377 37.7252 42.1377H21.0688C9.43285 42.1377 0 32.7048 0 21.0688C0 9.43285 9.43285 0 21.0688 0H132.417C140.736 0 147.48 6.74437 147.48 15.064Z" fill="white"/>
<path d="M147.48 122.936C147.48 114.616 140.736 107.872 132.417 107.872H66.0912C60.7458 107.872 55.6286 105.706 51.9082 101.867C48.1878 98.0289 43.0706 95.8623 37.7252 95.8623H21.0688C9.43285 95.8623 0 105.295 0 116.931C0 128.567 9.43285 138 21.0688 138H132.417C140.736 138 147.48 131.256 147.48 122.936Z" fill="white"/>
<path d="M147.48 69.0643C147.48 84.634 134.859 97.2557 119.289 97.2557H66.1833C61.7376 97.2557 57.4289 95.7172 53.9888 92.9012C50.5486 90.0853 46.2399 88.5468 41.7942 88.5468H19.4819C8.72236 88.5468 0 79.8244 0 69.0648C0 58.3052 8.72236 49.5829 19.4819 49.5829H41.7697C46.159 49.5829 50.409 48.0416 53.7778 45.2279C57.1467 42.4142 61.3967 40.8729 65.786 40.8729H119.289C134.859 40.8729 147.48 53.4946 147.48 69.0643Z" fill="white"/>
</svg>
